<?xml version="1.0" encoding="UTF-8"?>
<svg id="Layer_1" xmlns="http://www.w3.org/2000/svg" version="1.1" viewBox="0 0 280 125">
  <!-- Generator: Adobe Illustrator 30.0.0, SVG Export Plug-In . SVG Version: 2.1.1 Build 123)  -->
  <defs>
    <style>
      .st0 {
        fill: none;
      }

      .st1 {
        fill: #ea1d23;
      }

      .st2 {
        fill: #f06c2a;
      }

      .st3 {
        fill: #02799f;
      }

      .st4 {
        fill: #279ec8;
      }

      .st5 {
        fill: #933034;
      }
    </style>
  </defs>
  <g>
    <path class="st0" d="M207.08,55.96c-.57,1.37-.86,2.8-.86,4.3,0,1.59.3,3.07.89,4.42,0,0,0,0,0,0,.55,1.26,1.36,2.42,2.43,3.48,2.21,2.2,4.96,3.3,8.24,3.3,1.56,0,3.06-.29,4.49-.87,1.43-.58,2.66-1.37,3.69-2.37,1.02-1,1.84-2.18,2.46-3.55,0,0,0,0,0,0,0,0,0,0,0,0,.62-1.37.92-2.84.92-4.42s-.31-3.04-.91-4.4c0,0,0,0,0,0,0,0,0-.01,0-.02-.62-1.37-1.44-2.55-2.46-3.55-1.03-1-2.26-1.79-3.69-2.37-1.44-.58-2.93-.87-4.49-.87-1.64,0-3.16.31-4.55.93-1.4.62-2.63,1.43-3.69,2.43-1.04.97-1.84,2.12-2.41,3.44,0,0,0,0,0,0-.02.04-.03.07-.05.1ZM217.78,53.85c1.82,0,3.46.77,4.62,2,0,0,0,0,0,0,1.08,1.14,1.74,2.67,1.74,4.36s-.7,3.31-1.83,4.46c0,0,0,0,0,0-1.15,1.17-2.76,1.9-4.53,1.9s-3.38-.73-4.53-1.9c0,0,0,0,0,0-1.13-1.15-1.83-2.72-1.83-4.46s.66-3.22,1.74-4.36c0,0,0,0,0,0,1.16-1.23,2.8-2,4.62-2Z"/>
    <path class="st0" d="M46.25,42.3c0-1.76-.39-3.1-1.04-4.11,0,0,0,0,0,0-2.03-3.17-6.55-3.19-9.07-3.2l-5.68-.02v3.22s-.01,0-.01,0l-.03,8.83h0s0,2.67,0,2.67l6.25.02c2.09,0,6.08.02,8.2-2.69,0,0,0,0,0,0,.84-1.08,1.39-2.59,1.4-4.72Z"/>
    <path class="st0" d="M91.79,51.68c-1.14-1.85-3.94-4.61-8.18-4.66-.05,0-.1,0-.15,0-.04,0-.07,0-.11,0-1.18.02-2.47.24-3.86.76-4.69,1.74-6.41,5.21-6.85,8.07,0,0,0,0,0,0-.18,1.13-.16,2.16-.04,2.95l7.95-2.95h0s11.23-4.17,11.23-4.17Z"/>
    <path class="st4" d="M53.94,25.69c-3.23-2.77-7.37-4.54-18.48-4.58l-19.63-.07-.03,8.32h41.4c-.92-1.35-2-2.58-3.26-3.66Z"/>
    <rect class="st4" x="167.35" y="25.87" width="14.47" height="3.49"/>
    <path class="st4" d="M227.44,37.67c-3.11-1.26-6.36-1.89-9.73-1.89-3.56,0-6.84.67-9.86,2.02-.28.12-.55.25-.81.38h21.6c-.39-.18-.79-.35-1.19-.52Z"/>
    <path class="st4" d="M140.03,35.98c-.5-.04-6.45-.02-9.23,1.11-.69.28-1.29.66-1.83,1.09h11.06v-2.21Z"/>
    <rect class="st4" x="110.52" y="35.96" width="14.2" height="2.23"/>
    <path class="st4" d="M30.46,34.97l5.68.02c2.52,0,7.04.03,9.07,3.2h15.42c-.51-3.18-1.65-6.22-3.43-8.83H15.8l-.03,8.83h14.68v-3.22Z"/>
    <rect class="st4" x="142.78" y="35.98" width="14.74" height="2.2"/>
    <path class="st4" d="M75.44,36.82c-1.05.39-2.04.85-2.99,1.37h22.18c-5.67-3.14-12.48-3.86-19.19-1.37Z"/>
    <polygon class="st4" points="167.35 35.96 160.25 35.96 160.25 38.19 192.33 38.19 192.33 35.96 181.82 35.96 181.82 29.36 167.35 29.36 167.35 35.96"/>
    <rect class="st4" x="167.35" y="29.36" width="14.47" height="0"/>
    <path class="st4" d="M103.8,47.02c-2.36-3.8-5.52-6.81-9.16-8.83h-22.2c-3.87,2.11-6.88,5.2-8.94,8.83h40.29Z"/>
    <rect class="st4" x="160.25" y="38.19" width="32.08" height="8.83"/>
    <path class="st4" d="M199.85,43.07c-1.28,1.19-2.38,2.51-3.33,3.95h42.37c-1-1.54-2.14-2.95-3.44-4.22-1.93-1.88-4.2-3.41-6.8-4.61h-21.62c-2.69,1.29-5.08,2.92-7.18,4.88Z"/>
    <path class="st4" d="M46.25,42.3c0,2.12-.55,3.63-1.4,4.72h15.61c.3-1.65.46-3.31.47-4.88,0-1.33-.1-2.65-.31-3.95h-15.42c.65,1.01,1.05,2.35,1.04,4.11Z"/>
    <polygon class="st4" points="30.45 38.19 15.77 38.19 15.73 47.02 30.42 47.02 30.45 38.19"/>
    <rect class="st4" x="142.78" y="38.19" width="14.74" height="8.83"/>
    <path class="st4" d="M140.03,38.19h-11.06c-2.11,1.71-3.16,4.35-4.07,6.2l-.18.76v-6.96h-14.2v8.83h29.51v-8.83Z"/>
    <rect class="st4" x="142.78" y="38.19" width="14.74" height="0"/>
    <polygon class="st4" points="45.21 38.19 60.62 38.19 60.62 38.19 45.21 38.19 45.21 38.19"/>
    <rect class="st4" x="160.25" y="38.19" width="32.08" height="0"/>
    <rect class="st4" x="15.77" y="38.19" width="14.68" height="0"/>
    <polygon class="st4" points="94.63 38.19 72.45 38.19 72.44 38.19 94.64 38.19 94.63 38.19"/>
    <polygon class="st4" points="140.03 38.19 128.97 38.19 128.97 38.19 140.03 38.19 140.03 38.19"/>
    <polygon class="st4" points="207.04 38.19 207.03 38.19 228.64 38.19 228.64 38.19 207.04 38.19"/>
    <rect class="st4" x="110.52" y="38.19" width="14.2" height="0"/>
    <rect class="st3" x="142.78" y="47.02" width="14.74" height="8.83"/>
    <path class="st3" d="M91.79,51.68l-11.23,4.17h26.75c-.22-1.07-.32-1.8-.94-3.53-.69-1.9-1.56-3.67-2.57-5.3h-20.18c4.23.05,7.04,2.81,8.18,4.66Z"/>
    <path class="st3" d="M79.49,47.78c1.39-.52,2.68-.74,3.86-.76h-19.85c-1.54,2.71-2.55,5.72-3.01,8.83h12.15c.45-2.85,2.16-6.32,6.85-8.07Z"/>
    <path class="st3" d="M217.78,53.85c-1.82,0-3.46.77-4.62,2h9.24c-1.16-1.23-2.8-2-4.62-2Z"/>
    <path class="st3" d="M60.46,47.02h-15.61c-2.12,2.71-6.11,2.7-8.2,2.69l-6.25-.02v-2.67s-14.67,0-14.67,0l-.03,8.83h41.65c1.45-2.52,2.53-5.67,3.11-8.83Z"/>
    <path class="st3" d="M194.52,50.76c-.69,1.65-1.19,3.35-1.49,5.09h14.1c.57-1.32,1.37-2.47,2.41-3.44,1.07-1,2.3-1.81,3.69-2.43,1.39-.62,2.91-.93,4.55-.93,1.56,0,3.06.29,4.49.87,1.43.58,2.66,1.37,3.69,2.37,1.02,1,1.85,2.18,2.46,3.55,0,0,0,.01,0,.02h13.98c-.33-1.86-.86-3.65-1.63-5.36-.55-1.23-1.18-2.38-1.89-3.47h-42.37c-.77,1.17-1.44,2.41-2,3.74Z"/>
    <path class="st3" d="M127.55,53.8c.81-1.03,1.89-1.91,3.23-2.63,1.35-.73,3.01-1.09,4.99-1.09.6,0,1.21.03,1.84.09.63.06,1.75.14,2.41.32v-3.47h-29.51v8.83h15.77c.33-.72.75-1.4,1.26-2.05Z"/>
    <polygon class="st3" points="160.25 49.9 167.44 49.9 167.44 55.85 181.82 55.85 181.82 49.9 192.33 49.9 192.33 47.02 160.25 47.02 160.25 49.9"/>
    <path class="st5" d="M229.35,60.26c0,1.58-.31,3.05-.92,4.42,0,0,0,0,0,0h13.91c.29-1.49.44-3.02.44-4.6,0-1.45-.13-2.85-.37-4.22h-13.97c.61,1.36.91,2.83.91,4.4Z"/>
    <path class="st5" d="M30.36,64.67h1.68s6.8,0,6.8,0c8.06-.19,11.85-1.93,15.72-5.27,1.04-.9,1.98-2.13,2.8-3.56H15.7l-.03,8.83h14.69Z"/>
    <rect class="st5" x="167.44" y="55.85" width="14.38" height="8.83"/>
    <path class="st5" d="M206.21,60.26c0-1.5.29-2.93.86-4.3.01-.04.03-.07.05-.1h-14.1c-.24,1.38-.37,2.79-.37,4.22,0,1.59.14,3.12.41,4.6h14.04c-.59-1.36-.89-2.83-.89-4.42Z"/>
    <path class="st5" d="M211.42,60.22c0,1.74.7,3.31,1.83,4.46h9.07c1.13-1.15,1.83-2.72,1.83-4.46s-.66-3.22-1.74-4.36h-9.25c-1.08,1.14-1.74,2.67-1.74,4.36Z"/>
    <path class="st5" d="M107.68,59.91l-12.94,4.77h12.36c.3-1.55.49-3.15.58-4.77Z"/>
    <path class="st5" d="M125.26,61.01c0-.91.18-2.64.54-3.85.13-.45.3-.88.49-1.31h-15.77v8.83h14.74v-3.67Z"/>
    <path class="st5" d="M107.31,55.86s0,0,0,0h-26.76l-7.95,2.95c-.11-.79-.14-1.82.04-2.95h-12.15c-.42,2.91-.36,5.9.22,8.83h22.9l23.7-8.82Z"/>
    <rect class="st5" x="142.78" y="55.85" width="14.74" height="8.83"/>
    <rect class="st1" x="110.52" y="64.68" width="14.74" height="8.83"/>
    <path class="st1" d="M225.96,68.23c-1.03,1-2.26,1.79-3.69,2.37-1.44.58-2.93.87-4.49.87-3.28,0-6.03-1.1-8.24-3.3-1.07-1.06-1.87-2.22-2.43-3.48h-14.04c.59,3.19,1.81,6.14,3.67,8.83h41.72l-.05-.04c.81-.85,1.9-2.78,2.36-3.81.72-1.59,1.23-3.25,1.56-4.98h-13.92c-.61,1.37-1.43,2.55-2.46,3.55Z"/>
    <polygon class="st1" points="30.36 64.68 15.67 64.68 15.64 73.51 30.32 73.51 30.36 64.68"/>
    <path class="st1" d="M107.1,64.68h-12.37c-.67,3.17-.95,6.16-6.08,7.97-4.98,1.76-9.51.46-13.02-5l7.97-2.97h-22.89c.25,1.27.59,2.53,1.04,3.76.66,1.83,1.51,3.52,2.51,5.07h39.67c1.47-2.52,2.54-5.56,3.17-8.83Z"/>
    <path class="st1" d="M217.78,66.58c1.77,0,3.38-.73,4.53-1.9h-9.06c1.15,1.17,2.76,1.9,4.53,1.9Z"/>
    <rect class="st1" x="142.78" y="64.68" width="14.74" height="8.83"/>
    <path class="st1" d="M37.01,64.7c.59,0,1.16,0,1.71-.01h-5.78,4.07Z"/>
    <path class="st1" d="M167.44,68.05c0,1.97.18,3.79.53,5.46h23.76l-.04-2.27c-.54.24-1.21.43-2.02.55-.81.12-1.57.18-2.29.18-2.1,0-3.55-.53-4.36-1.6-.81-1.07-1.21-2.66-1.21-4.8v-.89h-14.38v3.36Z"/>
    <path class="st1" d="M32.93,64.68h5.78s.08,0,.12,0h-6.8.9Z"/>
    <rect class="st2" x="110.52" y="73.51" width="14.74" height="8.83"/>
    <path class="st2" d="M199.85,77.22c2.25,2.24,4.76,3.94,7.51,5.13h20.39c1.94-.83,4.08-2.12,5.65-3.26l3.91,3.25h0s17.51,0,17.51,0c-5.2-4.43-10.33-8.8-10.33-8.8l-2.52,3.07-3.51-3.1h-41.72c.89,1.29,1.93,2.53,3.11,3.7Z"/>
    <path class="st2" d="M168.25,74.66c.54,1.98,1.42,3.68,2.65,5.11.89,1.04,1.99,1.89,3.31,2.58h17.67l-.14-8.83h-23.76c.08.39.17.77.27,1.15Z"/>
    <path class="st2" d="M103.11,74.82c.29-.42.56-.85.83-1.3h-39.67c2.53,3.93,6.04,6.94,10.03,8.83h20.21c3.47-1.69,6.44-4.25,8.6-7.53Z"/>
    <rect class="st2" x="142.78" y="73.51" width="14.74" height="8.83"/>
    <polygon class="st2" points="30.32 73.51 15.64 73.51 15.61 82.33 24.82 82.35 30.29 82.35 30.32 73.51"/>
    <path class="st2" d="M92.49,83.21c.69-.26,1.36-.55,2.01-.86h-20.21c5.6,2.65,12.13,3.12,18.2.86Z"/>
    <rect class="st2" x="142.78" y="82.35" width="14.74" height="0"/>
    <path class="st2" d="M175.8,83.05c2.04.76,4.55,1.14,7.55,1.14,1.56,0,3.11-.14,4.67-.41,1.56-.27,2.84-.59,3.86-.96v-.48h-17.68c.5.26,1.03.5,1.59.71Z"/>
    <path class="st2" d="M234.66,85.28s3.11,2.64,6.94,5.9h23.59c-1.34-1.14-5.88-5.01-10.36-8.83h-17.51l-2.65,2.94Z"/>
    <rect class="st2" x="110.52" y="82.35" width="14.74" height="0"/>
    <path class="st2" d="M217.71,84.37c3.37,0,6.62-.63,9.73-1.89.1-.04.21-.09.31-.14h-20.39c3.12,1.35,6.57,2.03,10.35,2.03Z"/>
    <polygon class="st2" points="30.29 82.35 24.82 82.35 30.29 82.35 30.29 82.35"/>
    <path class="st2" d="M251.99,100.01h9.13c2.97-3.11,5.66-7.47,4.32-8.62-.06-.05-.15-.13-.25-.21h-23.59c3.45,2.94,7.5,6.37,10.39,8.83Z"/>
    <path class="st2" d="M255.6,103.09c.98.85,3.33-.78,5.52-3.08h-9.13c1.76,1.5,3.09,2.63,3.61,3.08Z"/>
  </g>
  <g>
    <path class="st4" d="M22.75,105.3c-.26.48-.67.87-1.23,1.17-.56.3-1.26.44-2.11.44h-1.73v3.97h-2.07v-10.33h3.8c.8,0,1.48.14,2.04.41.56.28.98.66,1.27,1.14.28.48.42,1.03.42,1.64,0,.55-.13,1.07-.39,1.55ZM20.59,104.84c.28-.26.41-.63.41-1.1,0-1.01-.56-1.51-1.69-1.51h-1.64v3h1.64c.57,0,1-.13,1.27-.39Z"/>
    <path class="st4" d="M27.34,102.93c.43-.25.92-.37,1.47-.37v2.18h-.55c-.65,0-1.14.15-1.47.46-.33.31-.5.84-.5,1.6v4.08h-2.07v-8.2h2.07v1.27c.27-.43.61-.77,1.04-1.02Z"/>
    <path class="st4" d="M31.46,110.48c-.63-.35-1.13-.85-1.49-1.49-.36-.64-.54-1.38-.54-2.22s.19-1.58.55-2.22.88-1.14,1.52-1.49c.64-.35,1.36-.53,2.15-.53s1.5.18,2.15.53c.64.35,1.15.85,1.52,1.49.37.64.55,1.38.55,2.22s-.19,1.58-.57,2.22c-.38.64-.89,1.14-1.54,1.49-.65.35-1.37.53-2.17.53s-1.5-.18-2.13-.53ZM34.65,108.93c.33-.18.59-.46.79-.82.2-.36.3-.81.3-1.33,0-.78-.2-1.38-.61-1.8-.41-.42-.91-.63-1.5-.63s-1.09.21-1.49.63c-.4.42-.6,1.02-.6,1.8s.19,1.38.58,1.8c.39.42.88.63,1.47.63.37,0,.73-.09,1.06-.27Z"/>
    <path class="st4" d="M42.95,104.38h-1.44v6.5h-2.1v-6.5h-.93v-1.7h.93v-.41c0-1.01.29-1.75.86-2.22.57-.47,1.44-.7,2.59-.67v1.75c-.5,0-.85.07-1.05.25-.2.18-.3.5-.3.96v.34h1.44v1.7Z"/>
    <path class="st4" d="M51.58,107.4h-5.99c.05.59.26,1.06.62,1.39.36.34.81.5,1.35.5.77,0,1.32-.33,1.64-.99h2.23c-.24.79-.69,1.44-1.36,1.95-.67.51-1.49.76-2.47.76-.79,0-1.5-.18-2.12-.53-.63-.35-1.11-.85-1.46-1.49-.35-.64-.53-1.38-.53-2.22s.17-1.59.52-2.23c.35-.64.83-1.13,1.45-1.48.62-.35,1.34-.52,2.15-.52s1.48.17,2.09.5c.62.34,1.1.81,1.44,1.43.34.62.51,1.32.51,2.12,0,.3-.02.56-.06.8ZM49.5,106.01c0-.53-.2-.96-.58-1.28-.37-.32-.83-.48-1.38-.48-.51,0-.94.16-1.29.47-.35.31-.56.74-.64,1.29h3.89Z"/>
    <path class="st4" d="M54.28,110.65c-.53-.24-.95-.57-1.27-.98-.31-.41-.48-.87-.51-1.38h2.09c.04.32.19.58.47.78.27.21.61.31,1.01.31s.7-.08.92-.24c.22-.16.33-.36.33-.61,0-.27-.14-.47-.41-.6-.27-.13-.7-.28-1.29-.44-.61-.15-1.11-.3-1.5-.46-.39-.16-.73-.4-1.01-.73-.28-.33-.42-.76-.42-1.32,0-.45.13-.87.39-1.24.26-.37.64-.67,1.12-.89.49-.22,1.06-.33,1.72-.33.98,0,1.76.24,2.34.73.58.49.9,1.15.96,1.98h-1.98c-.03-.33-.17-.58-.41-.78-.24-.19-.56-.29-.97-.29-.37,0-.66.07-.87.21-.2.14-.3.33-.3.58,0,.28.14.49.41.63.28.14.71.29,1.29.44.59.15,1.08.3,1.46.46.38.16.72.4,1,.73.28.33.43.77.44,1.31,0,.47-.13.9-.39,1.27-.26.37-.64.67-1.12.88-.49.21-1.06.32-1.71.32s-1.27-.12-1.81-.36Z"/>
    <path class="st4" d="M62.14,110.65c-.53-.24-.95-.57-1.27-.98-.31-.41-.48-.87-.51-1.38h2.09c.04.32.19.58.47.78.27.21.61.31,1.01.31s.7-.08.92-.24c.22-.16.33-.36.33-.61,0-.27-.14-.47-.41-.6-.27-.13-.7-.28-1.29-.44-.61-.15-1.11-.3-1.5-.46-.39-.16-.73-.4-1.01-.73-.28-.33-.42-.76-.42-1.32,0-.45.13-.87.39-1.24.26-.37.64-.67,1.12-.89.49-.22,1.06-.33,1.72-.33.98,0,1.76.24,2.34.73.58.49.9,1.15.96,1.98h-1.98c-.03-.33-.17-.58-.41-.78-.24-.19-.56-.29-.97-.29-.37,0-.66.07-.87.21-.2.14-.3.33-.3.58,0,.28.14.49.41.63.28.14.71.29,1.29.44.59.15,1.08.3,1.46.46.38.16.72.4,1,.73.28.33.43.77.44,1.31,0,.47-.13.9-.39,1.27-.26.37-.64.67-1.12.88-.49.21-1.06.32-1.71.32s-1.27-.12-1.81-.36Z"/>
    <path class="st4" d="M68.8,101.35c-.24-.23-.36-.52-.36-.87s.12-.63.36-.87c.24-.23.54-.35.91-.35s.67.12.91.35c.24.23.36.52.36.87s-.12.63-.36.87c-.24.23-.55.35-.91.35s-.67-.12-.91-.35ZM70.73,102.68v8.2h-2.07v-8.2h2.07Z"/>
    <path class="st4" d="M74.08,110.48c-.63-.35-1.13-.85-1.49-1.49-.36-.64-.54-1.38-.54-2.22s.19-1.58.55-2.22.88-1.14,1.52-1.49c.64-.35,1.36-.53,2.15-.53s1.5.18,2.15.53c.64.35,1.15.85,1.52,1.49.37.64.55,1.38.55,2.22s-.19,1.58-.57,2.22c-.38.64-.89,1.14-1.54,1.49-.65.35-1.37.53-2.17.53s-1.5-.18-2.13-.53ZM77.27,108.93c.33-.18.59-.46.79-.82.2-.36.3-.81.3-1.33,0-.78-.2-1.38-.61-1.8-.41-.42-.91-.63-1.5-.63s-1.09.21-1.49.63c-.4.42-.6,1.02-.6,1.8s.19,1.38.58,1.8c.39.42.88.63,1.47.63.37,0,.73-.09,1.06-.27Z"/>
    <path class="st4" d="M88.75,103.48c.6.62.9,1.48.9,2.58v4.81h-2.07v-4.53c0-.65-.16-1.15-.49-1.5-.33-.35-.77-.53-1.33-.53s-1.02.18-1.35.53c-.33.35-.5.85-.5,1.5v4.53h-2.07v-8.2h2.07v1.02c.28-.36.63-.63,1.06-.84.43-.2.9-.3,1.41-.3.98,0,1.77.31,2.37.92Z"/>
    <path class="st4" d="M91.45,104.54c.33-.64.78-1.13,1.35-1.48.57-.35,1.2-.52,1.9-.52.61,0,1.15.12,1.61.37.46.25.83.56,1.1.93v-1.17h2.09v8.2h-2.09v-1.2c-.27.38-.63.7-1.1.95-.47.25-1.01.38-1.62.38-.69,0-1.32-.18-1.89-.53-.57-.36-1.02-.86-1.35-1.5-.33-.65-.5-1.39-.5-2.23s.17-1.56.5-2.2ZM97.11,105.48c-.2-.36-.46-.64-.8-.83-.34-.19-.7-.29-1.08-.29s-.74.09-1.07.28c-.33.19-.59.46-.79.82-.2.36-.3.79-.3,1.28s.1.92.3,1.29c.2.37.47.65.8.85.33.2.68.3,1.06.3s.74-.1,1.08-.29c.34-.19.6-.47.8-.83.2-.36.3-.79.3-1.29s-.1-.93-.3-1.29Z"/>
    <path class="st4" d="M103.39,99.92v10.95h-2.07v-10.95h2.07Z"/>
    <path class="st4" d="M116.1,105.3c-.26.48-.67.87-1.23,1.17-.56.3-1.26.44-2.11.44h-1.73v3.97h-2.07v-10.33h3.8c.8,0,1.48.14,2.04.41.56.28.98.66,1.27,1.14.28.48.42,1.03.42,1.64,0,.55-.13,1.07-.39,1.55ZM113.94,104.84c.28-.26.41-.63.41-1.1,0-1.01-.56-1.51-1.69-1.51h-1.64v3h1.64c.57,0,1-.13,1.27-.39Z"/>
    <path class="st4" d="M125.19,107.4h-5.99c.05.59.26,1.06.62,1.39.36.34.81.5,1.35.5.77,0,1.32-.33,1.64-.99h2.23c-.24.79-.69,1.44-1.36,1.95-.67.51-1.49.76-2.47.76-.79,0-1.5-.18-2.12-.53-.63-.35-1.11-.85-1.46-1.49-.35-.64-.53-1.38-.53-2.22s.17-1.59.52-2.23c.35-.64.83-1.13,1.45-1.48.62-.35,1.34-.52,2.15-.52s1.48.17,2.09.5c.62.34,1.1.81,1.44,1.43.34.62.51,1.32.51,2.12,0,.3-.02.56-.06.8ZM123.11,106.01c0-.53-.2-.96-.58-1.28-.37-.32-.83-.48-1.38-.48-.51,0-.94.16-1.29.47-.35.31-.56.74-.64,1.29h3.89Z"/>
    <path class="st4" d="M129.74,102.93c.43-.25.92-.37,1.47-.37v2.18h-.55c-.65,0-1.14.15-1.47.46-.33.31-.5.84-.5,1.6v4.08h-2.07v-8.2h2.07v1.27c.27-.43.61-.77,1.04-1.02Z"/>
    <path class="st4" d="M136.39,104.38h-1.44v6.5h-2.1v-6.5h-.93v-1.7h.93v-.41c0-1.01.29-1.75.86-2.22.57-.47,1.44-.7,2.59-.67v1.75c-.5,0-.85.07-1.05.25-.2.18-.3.5-.3.96v.34h1.44v1.7Z"/>
    <path class="st4" d="M138.94,110.48c-.63-.35-1.13-.85-1.49-1.49-.36-.64-.54-1.38-.54-2.22s.19-1.58.55-2.22.88-1.14,1.52-1.49c.64-.35,1.36-.53,2.15-.53s1.5.18,2.15.53c.64.35,1.15.85,1.52,1.49.37.64.55,1.38.55,2.22s-.19,1.58-.57,2.22c-.38.64-.89,1.14-1.54,1.49-.65.35-1.37.53-2.17.53s-1.5-.18-2.13-.53ZM142.13,108.93c.33-.18.59-.46.79-.82.2-.36.3-.81.3-1.33,0-.78-.2-1.38-.61-1.8-.41-.42-.91-.63-1.5-.63s-1.09.21-1.49.63c-.4.42-.6,1.02-.6,1.8s.19,1.38.58,1.8c.39.42.88.63,1.47.63.37,0,.73-.09,1.06-.27Z"/>
    <path class="st4" d="M149.81,102.93c.43-.25.92-.37,1.47-.37v2.18h-.55c-.65,0-1.14.15-1.47.46-.33.31-.5.84-.5,1.6v4.08h-2.07v-8.2h2.07v1.27c.27-.43.61-.77,1.04-1.02Z"/>
    <path class="st4" d="M164.95,103.48c.62.62.92,1.48.92,2.58v4.81h-2.07v-4.53c0-.64-.16-1.13-.49-1.47-.33-.34-.77-.51-1.33-.51s-1.01.17-1.34.51c-.33.34-.5.83-.5,1.47v4.53h-2.07v-4.53c0-.64-.16-1.13-.49-1.47-.33-.34-.77-.51-1.33-.51s-1.02.17-1.35.51c-.33.34-.5.83-.5,1.47v4.53h-2.07v-8.2h2.07v.99c.27-.35.61-.62,1.03-.81.42-.2.88-.3,1.38-.3.64,0,1.21.14,1.72.41.5.27.89.66,1.17,1.16.27-.47.65-.85,1.16-1.14.51-.29,1.06-.43,1.65-.43,1.01,0,1.82.31,2.43.92Z"/>
    <path class="st4" d="M167.67,104.54c.33-.64.78-1.13,1.35-1.48.57-.35,1.2-.52,1.9-.52.61,0,1.15.12,1.61.37.46.25.83.56,1.1.93v-1.17h2.09v8.2h-2.09v-1.2c-.27.38-.63.7-1.1.95-.47.25-1.01.38-1.62.38-.69,0-1.32-.18-1.89-.53-.57-.36-1.02-.86-1.35-1.5-.33-.65-.5-1.39-.5-2.23s.17-1.56.5-2.2ZM173.33,105.48c-.2-.36-.46-.64-.8-.83-.34-.19-.7-.29-1.08-.29s-.74.09-1.07.28c-.33.19-.59.46-.79.82-.2.36-.3.79-.3,1.28s.1.92.3,1.29c.2.37.47.65.8.85.33.2.68.3,1.06.3s.74-.1,1.08-.29c.34-.19.6-.47.8-.83.2-.36.3-.79.3-1.29s-.1-.93-.3-1.29Z"/>
    <path class="st4" d="M184.45,103.48c.6.62.9,1.48.9,2.58v4.81h-2.07v-4.53c0-.65-.16-1.15-.49-1.5-.33-.35-.77-.53-1.33-.53s-1.02.18-1.35.53c-.33.35-.5.85-.5,1.5v4.53h-2.07v-8.2h2.07v1.02c.28-.36.63-.63,1.06-.84.43-.2.9-.3,1.41-.3.98,0,1.77.31,2.37.92Z"/>
    <path class="st4" d="M187.18,104.55c.35-.64.82-1.13,1.44-1.48.61-.35,1.31-.53,2.1-.53,1.02,0,1.86.25,2.52.76.67.51,1.11,1.22,1.34,2.14h-2.23c-.12-.36-.32-.63-.6-.84-.28-.2-.63-.3-1.04-.3-.59,0-1.06.21-1.41.64-.35.43-.52,1.04-.52,1.83s.17,1.38.52,1.81c.35.43.81.64,1.41.64.84,0,1.39-.37,1.64-1.12h2.23c-.23.89-.68,1.59-1.35,2.12-.67.52-1.51.78-2.52.78-.79,0-1.49-.18-2.1-.53-.61-.35-1.09-.84-1.44-1.48-.35-.64-.52-1.38-.52-2.23s.17-1.59.52-2.23Z"/>
    <path class="st4" d="M203.47,107.4h-5.99c.05.59.26,1.06.62,1.39.36.34.81.5,1.35.5.77,0,1.32-.33,1.64-.99h2.23c-.24.79-.69,1.44-1.36,1.95-.67.51-1.49.76-2.47.76-.79,0-1.5-.18-2.12-.53-.63-.35-1.11-.85-1.46-1.49-.35-.64-.53-1.38-.53-2.22s.17-1.59.52-2.23c.35-.64.83-1.13,1.45-1.48.62-.35,1.34-.52,2.15-.52s1.48.17,2.09.5c.62.34,1.1.81,1.44,1.43.34.62.51,1.32.51,2.12,0,.3-.02.56-.06.8ZM201.38,106.01c0-.53-.2-.96-.58-1.28-.37-.32-.83-.48-1.38-.48-.51,0-.94.16-1.29.47-.35.31-.56.74-.64,1.29h3.89Z"/>
  </g>
  <circle class="st4" cx="150.09" cy="23.04" r="8.45"/>
</svg>