<?xml version="1.0" encoding="UTF-8"?>
<svg id="Layer_2" xmlns="http://www.w3.org/2000/svg" version="1.1" viewBox="0 0 280 125">
  <!-- Generator: Adobe Illustrator 30.0.0, SVG Export Plug-In . SVG Version: 2.1.1 Build 123)  -->
  <defs>
    <style>
      .st0 {
        fill: none;
      }

      .st1 {
        fill: #fff;
      }
    </style>
  </defs>
  <g>
    <path class="st0" d="M47.54,104.25c-.51,0-.94.16-1.29.47-.35.31-.56.74-.64,1.29h3.89c-.01-.53-.2-.96-.58-1.28-.37-.32-.83-.48-1.38-.48Z"/>
    <path class="st0" d="M172.53,104.65c-.34-.19-.7-.29-1.08-.29s-.74.09-1.07.28c-.33.19-.59.46-.79.82-.2.36-.3.79-.3,1.28s.1.92.3,1.29c.2.37.47.65.8.85.33.2.68.3,1.06.3s.74-.1,1.08-.29c.34-.19.6-.47.8-.83.2-.36.3-.79.3-1.29s-.1-.93-.3-1.29c-.2-.36-.46-.64-.8-.83Z"/>
    <path class="st0" d="M199.43,104.25c-.51,0-.94.16-1.29.47-.35.31-.56.74-.64,1.29h3.89c0-.53-.2-.96-.58-1.28-.37-.32-.83-.48-1.38-.48Z"/>
    <path class="st0" d="M33.62,104.35c-.59,0-1.09.21-1.49.63-.4.42-.6,1.02-.6,1.8s.19,1.38.58,1.8c.39.42.88.63,1.47.63.37,0,.73-.09,1.06-.27.33-.18.59-.46.79-.82.2-.36.3-.81.3-1.33,0-.78-.2-1.38-.61-1.8-.41-.42-.91-.63-1.5-.63Z"/>
    <path class="st0" d="M141.1,104.35c-.59,0-1.09.21-1.49.63-.4.42-.6,1.02-.6,1.8s.19,1.38.58,1.8c.39.42.88.63,1.47.63.37,0,.73-.09,1.06-.27.33-.18.59-.46.79-.82.2-.36.3-.81.3-1.33,0-.78-.2-1.38-.61-1.8-.41-.42-.91-.63-1.5-.63Z"/>
    <path class="st0" d="M79.63,47.68c-6.57,2.35-7.42,8.3-7.01,11.06l19.2-7.07c-1.47-2.36-5.92-6.24-12.19-3.99Z"/>
    <path class="st0" d="M112.67,102.23h-1.64v3h1.64c.57,0,1-.13,1.27-.39.28-.26.41-.63.41-1.1,0-1.01-.56-1.51-1.69-1.51Z"/>
    <path class="st0" d="M96.31,104.65c-.34-.19-.7-.29-1.08-.29s-.74.09-1.07.28c-.33.19-.59.46-.79.82-.2.36-.3.79-.3,1.28s.1.92.3,1.29c.2.37.47.65.8.85.33.2.68.3,1.06.3s.74-.1,1.08-.29c.34-.19.6-.47.8-.83.2-.36.3-.79.3-1.29s-.1-.93-.3-1.29c-.2-.36-.46-.64-.8-.83Z"/>
    <path class="st0" d="M76.24,104.35c-.59,0-1.09.21-1.49.63-.4.42-.6,1.02-.6,1.8s.19,1.38.58,1.8c.39.42.88.63,1.47.63.37,0,.73-.09,1.06-.27.33-.18.59-.46.79-.82.2-.36.3-.81.3-1.33,0-.78-.2-1.38-.61-1.8-.41-.42-.91-.63-1.5-.63Z"/>
    <path class="st0" d="M121.15,104.25c-.51,0-.94.16-1.29.47-.35.31-.56.74-.64,1.29h3.89c-.01-.53-.2-.96-.58-1.28-.38-.32-.83-.48-1.38-.48Z"/>
    <path class="st0" d="M46.28,42.26c.03-7.19-6.71-7.21-10.03-7.22l-5.77-.02-.05,14.66,6.33.05c2.92.01,9.49-.11,9.52-7.46Z"/>
    <path class="st0" d="M19.32,102.23h-1.64v3h1.64c.57,0,1-.13,1.27-.39.28-.26.41-.63.41-1.1,0-1.01-.56-1.51-1.69-1.51Z"/>
    <path d="M78.42,103.07c-.64-.35-1.36-.53-2.15-.53s-1.5.18-2.15.53c-.64.35-1.15.85-1.52,1.49-.37.64-.55,1.38-.55,2.22s.18,1.58.54,2.22c.36.64.86,1.14,1.49,1.49.63.35,1.34.53,2.13.53s1.52-.17,2.17-.53c.65-.35,1.16-.85,1.54-1.49.38-.64.57-1.38.57-2.22s-.18-1.58-.55-2.22c-.37-.64-.88-1.14-1.52-1.49ZM78.06,108.11c-.2.37-.46.64-.79.82-.33.18-.68.27-1.06.27-.59,0-1.08-.21-1.47-.63-.39-.42-.58-1.02-.58-1.8s.2-1.38.6-1.8c.4-.42.9-.63,1.49-.63s1.09.21,1.5.63c.41.42.61,1.02.61,1.8,0,.52-.1.97-.3,1.33Z"/>
    <path d="M86.38,102.56c-.51,0-.98.1-1.41.3-.43.2-.78.48-1.06.84v-1.02h-2.07v8.2h2.07v-4.53c0-.65.17-1.15.5-1.5.33-.35.78-.53,1.35-.53s1.01.18,1.33.53c.33.35.49.85.49,1.5v4.53h2.07v-4.81c0-1.1-.3-1.97-.9-2.58-.6-.62-1.39-.92-2.37-.92Z"/>
    <path d="M97.41,103.85c-.28-.37-.64-.69-1.1-.93-.46-.25-.99-.37-1.61-.37-.7,0-1.33.17-1.9.52-.57.35-1.02.84-1.35,1.48-.33.64-.5,1.38-.5,2.2s.17,1.58.5,2.23c.33.65.78,1.15,1.35,1.5.57.36,1.2.53,1.89.53.61,0,1.15-.13,1.62-.38.47-.25.84-.57,1.1-.95v1.2h2.09v-8.2h-2.09v1.17ZM97.11,108.07c-.2.36-.46.64-.8.83-.34.19-.7.29-1.08.29s-.73-.1-1.06-.3c-.33-.2-.6-.48-.8-.85-.2-.37-.3-.8-.3-1.29s.1-.92.3-1.28c.2-.36.47-.63.79-.82.33-.19.68-.28,1.07-.28s.74.1,1.08.29c.34.19.6.47.8.83.2.36.3.79.3,1.29s-.1.93-.3,1.29Z"/>
    <rect x="101.32" y="99.92" width="2.07" height="10.95"/>
    <path d="M57.87,106.49c-.38-.16-.87-.31-1.46-.46-.58-.15-1.01-.29-1.29-.44-.28-.14-.41-.35-.41-.63,0-.25.1-.44.3-.58.2-.14.49-.21.87-.21.4,0,.73.1.97.29.24.19.38.45.41.78h1.98c-.06-.83-.38-1.49-.96-1.98-.58-.49-1.36-.73-2.34-.73-.66,0-1.24.11-1.72.33-.49.22-.86.51-1.12.89-.26.37-.39.79-.39,1.24,0,.55.14.99.42,1.32.28.33.62.57,1.01.73.39.16.89.31,1.5.46.59.16,1.02.3,1.29.44.27.13.41.33.41.6,0,.25-.11.45-.33.61-.22.16-.53.24-.92.24s-.74-.1-1.01-.31c-.27-.21-.43-.47-.47-.78h-2.09c.03.5.2.96.51,1.38.31.41.73.74,1.27.98.53.24,1.13.36,1.81.36s1.22-.11,1.71-.32c.49-.21.86-.51,1.12-.88.26-.37.39-.8.39-1.27-.01-.54-.16-.98-.44-1.31-.28-.33-.61-.57-1-.73Z"/>
    <path d="M21.45,100.96c-.56-.28-1.24-.41-2.04-.41h-3.8v10.33h2.07v-3.97h1.73c.85,0,1.55-.15,2.11-.44.56-.3.97-.69,1.23-1.17.26-.48.39-1,.39-1.55,0-.61-.14-1.16-.42-1.64-.28-.48-.7-.86-1.27-1.14ZM20.59,104.84c-.28.26-.7.39-1.27.39h-1.64v-3h1.64c1.12,0,1.69.5,1.69,1.51,0,.47-.14.84-.41,1.1Z"/>
    <path d="M41.51,102.34c0-.46.1-.78.3-.96.2-.18.55-.26,1.05-.25v-1.75c-1.15-.03-2.02.19-2.59.67-.57.47-.86,1.21-.86,2.22v.41h-.93v1.7h.93v6.5h2.1v-6.5h1.44v-1.7h-1.44v-.34Z"/>
    <path d="M69.71,99.27c-.37,0-.67.12-.91.35-.24.23-.36.52-.36.87s.12.63.36.87c.24.23.54.35.91.35s.67-.12.91-.35c.24-.23.36-.52.36-.87s-.12-.63-.36-.87c-.24-.23-.55-.35-.91-.35Z"/>
    <path d="M35.8,103.07c-.64-.35-1.36-.53-2.15-.53s-1.5.18-2.15.53c-.64.35-1.15.85-1.52,1.49-.37.64-.55,1.38-.55,2.22s.18,1.58.54,2.22c.36.64.86,1.14,1.49,1.49.63.35,1.34.53,2.13.53s1.52-.17,2.17-.53c.65-.35,1.16-.85,1.54-1.49.38-.64.57-1.38.57-2.22s-.18-1.58-.55-2.22c-.37-.64-.88-1.14-1.52-1.49ZM35.44,108.11c-.2.37-.46.64-.79.82-.33.18-.68.27-1.06.27-.59,0-1.08-.21-1.47-.63-.39-.42-.58-1.02-.58-1.8s.2-1.38.6-1.8c.4-.42.9-.63,1.49-.63s1.09.21,1.5.63c.41.42.61,1.02.61,1.8,0,.52-.1.97-.3,1.33Z"/>
    <path d="M49.7,103.05c-.62-.34-1.31-.5-2.09-.5s-1.52.17-2.15.52c-.62.35-1.11.84-1.45,1.48-.35.64-.52,1.39-.52,2.23s.18,1.58.53,2.22c.35.64.84,1.14,1.46,1.49.63.35,1.33.53,2.12.53.98,0,1.8-.25,2.47-.76.67-.51,1.12-1.16,1.36-1.95h-2.23c-.33.66-.87.99-1.64.99-.53,0-.98-.17-1.35-.5-.37-.34-.57-.8-.62-1.39h5.99c.04-.24.06-.5.06-.8,0-.8-.17-1.51-.51-2.12-.34-.62-.82-1.09-1.44-1.43ZM45.6,106.01c.08-.55.29-.98.64-1.29.35-.31.78-.47,1.29-.47.54,0,1,.16,1.38.48.37.32.57.75.58,1.28h-3.89Z"/>
    <rect x="68.66" y="102.68" width="2.07" height="8.2"/>
    <path d="M65.74,106.49c-.38-.16-.87-.31-1.46-.46-.58-.15-1.01-.29-1.29-.44-.28-.14-.41-.35-.41-.63,0-.25.1-.44.3-.58.2-.14.49-.21.87-.21.4,0,.73.1.97.29.24.19.38.45.41.78h1.98c-.06-.83-.38-1.49-.96-1.98-.58-.49-1.36-.73-2.34-.73-.66,0-1.24.11-1.72.33-.49.22-.86.51-1.12.89-.26.37-.39.79-.39,1.24,0,.55.14.99.42,1.32.28.33.62.57,1.01.73.39.16.89.31,1.5.46.59.16,1.02.3,1.29.44.27.13.41.33.41.6,0,.25-.11.45-.33.61-.22.16-.53.24-.92.24s-.74-.1-1.01-.31c-.27-.21-.43-.47-.47-.78h-2.09c.03.5.2.96.51,1.38.31.41.73.74,1.27.98.53.24,1.13.36,1.81.36s1.22-.11,1.71-.32c.49-.21.86-.51,1.12-.88.26-.37.39-.8.39-1.27-.01-.54-.16-.98-.44-1.31-.28-.33-.61-.57-1-.73Z"/>
    <path d="M26.3,103.95v-1.27h-2.07v8.2h2.07v-4.08c0-.76.17-1.29.5-1.6.33-.31.82-.46,1.47-.46h.55v-2.18c-.55,0-1.04.12-1.47.37-.43.25-.78.59-1.04,1.02Z"/>
    <path d="M173.62,103.85c-.28-.37-.64-.69-1.1-.93-.46-.25-.99-.37-1.61-.37-.7,0-1.33.17-1.9.52-.57.35-1.02.84-1.35,1.48-.33.64-.5,1.38-.5,2.2s.17,1.58.5,2.23c.33.65.78,1.15,1.35,1.5.57.36,1.2.53,1.89.53.61,0,1.15-.13,1.62-.38.47-.25.84-.57,1.1-.95v1.2h2.09v-8.2h-2.09v1.17ZM173.33,108.07c-.2.36-.46.64-.8.83-.34.19-.7.29-1.08.29s-.73-.1-1.06-.3c-.33-.2-.6-.48-.8-.85-.2-.37-.3-.8-.3-1.29s.1-.92.3-1.28c.2-.36.47-.63.79-.82.33-.19.68-.28,1.07-.28s.74.1,1.08.29c.34.19.6.47.8.83.2.36.3.79.3,1.29s-.1.93-.3,1.29Z"/>
    <path d="M182.09,102.56c-.51,0-.98.1-1.41.3-.43.2-.78.48-1.06.84v-1.02h-2.07v8.2h2.07v-4.53c0-.65.17-1.15.5-1.5.33-.35.78-.53,1.35-.53s1.01.18,1.33.53c.33.35.49.85.49,1.5v4.53h2.07v-4.81c0-1.1-.3-1.97-.9-2.58-.6-.62-1.39-.92-2.37-.92Z"/>
    <path d="M201.58,103.05c-.62-.34-1.31-.5-2.09-.5s-1.52.17-2.15.52c-.62.35-1.11.84-1.45,1.48-.35.64-.52,1.39-.52,2.23s.17,1.58.53,2.22c.35.64.84,1.14,1.46,1.49.63.35,1.33.53,2.12.53.98,0,1.8-.25,2.47-.76.67-.51,1.12-1.16,1.36-1.95h-2.23c-.33.66-.87.99-1.64.99-.53,0-.98-.17-1.35-.5-.37-.34-.57-.8-.62-1.39h5.99c.04-.24.06-.5.06-.8,0-.8-.17-1.51-.51-2.12-.34-.62-.82-1.09-1.44-1.43ZM197.49,106.01c.08-.55.29-.98.64-1.29.35-.31.78-.47,1.29-.47.54,0,1,.16,1.38.48.37.32.57.75.58,1.28h-3.89Z"/>
    <path d="M190.7,104.3c.41,0,.76.1,1.04.3.28.2.48.48.6.84h2.23c-.23-.92-.67-1.63-1.34-2.14-.67-.51-1.51-.76-2.52-.76-.79,0-1.49.18-2.1.53-.61.35-1.09.84-1.44,1.48-.35.64-.52,1.38-.52,2.23s.17,1.59.52,2.23c.35.64.82,1.13,1.44,1.48.61.35,1.31.53,2.1.53,1.01,0,1.84-.26,2.52-.78.67-.52,1.12-1.23,1.35-2.12h-2.23c-.26.75-.8,1.12-1.64,1.12-.59,0-1.06-.21-1.41-.64-.35-.43-.52-1.03-.52-1.81s.17-1.4.52-1.83c.35-.43.81-.64,1.41-.64Z"/>
    <path d="M162.51,102.56c-.59,0-1.14.14-1.65.43-.51.29-.9.67-1.16,1.14-.28-.5-.67-.89-1.17-1.16-.5-.27-1.08-.41-1.72-.41-.5,0-.96.1-1.38.3-.42.2-.76.47-1.03.81v-.99h-2.07v8.2h2.07v-4.53c0-.64.17-1.13.5-1.47.33-.34.78-.51,1.35-.51s1.01.17,1.33.51c.33.34.49.83.49,1.47v4.53h2.07v-4.53c0-.64.17-1.13.5-1.47.33-.34.78-.51,1.34-.51s1.01.17,1.33.51c.33.34.49.83.49,1.47v4.53h2.07v-4.81c0-1.1-.31-1.97-.92-2.58-.62-.62-1.43-.92-2.43-.92Z"/>
    <path d="M148.77,103.95v-1.27h-2.07v8.2h2.07v-4.08c0-.76.17-1.29.5-1.6.33-.31.82-.46,1.47-.46h.55v-2.18c-.55,0-1.04.12-1.47.37-.43.25-.78.59-1.04,1.02Z"/>
    <path d="M114.8,100.96c-.56-.28-1.24-.41-2.04-.41h-3.8v10.33h2.07v-3.97h1.73c.85,0,1.55-.15,2.11-.44.56-.3.97-.69,1.23-1.17.26-.48.39-1,.39-1.55,0-.61-.14-1.16-.42-1.64-.28-.48-.7-.86-1.27-1.14ZM113.94,104.84c-.28.26-.7.39-1.27.39h-1.64v-3h1.64c1.12,0,1.69.5,1.69,1.51,0,.47-.14.84-.41,1.1Z"/>
    <path d="M123.31,103.05c-.62-.34-1.31-.5-2.09-.5s-1.52.17-2.15.52c-.62.35-1.11.84-1.45,1.48-.35.64-.52,1.39-.52,2.23s.17,1.58.53,2.22c.35.64.84,1.14,1.46,1.49.63.35,1.33.53,2.12.53.98,0,1.8-.25,2.47-.76.67-.51,1.12-1.16,1.36-1.95h-2.23c-.33.66-.87.99-1.64.99-.53,0-.98-.17-1.35-.5-.37-.34-.57-.8-.62-1.39h5.99c.04-.24.06-.5.06-.8,0-.8-.17-1.51-.51-2.12-.34-.62-.82-1.09-1.44-1.43ZM119.22,106.01c.08-.55.29-.98.64-1.29.35-.31.78-.47,1.29-.47.54,0,1,.16,1.38.48.37.32.57.75.58,1.28h-3.89Z"/>
    <path d="M128.7,103.95v-1.27h-2.07v8.2h2.07v-4.08c0-.76.17-1.29.5-1.6.33-.31.82-.46,1.47-.46h.55v-2.18c-.55,0-1.04.12-1.47.37-.43.25-.78.59-1.04,1.02Z"/>
    <path d="M143.27,103.07c-.64-.35-1.36-.53-2.15-.53s-1.5.18-2.15.53c-.64.35-1.15.85-1.52,1.49-.37.64-.55,1.38-.55,2.22s.18,1.58.54,2.22c.36.64.86,1.14,1.49,1.49.63.35,1.34.53,2.13.53s1.52-.17,2.17-.53c.65-.35,1.16-.85,1.54-1.49.38-.64.57-1.38.57-2.22s-.18-1.58-.55-2.22c-.37-.64-.88-1.14-1.52-1.49ZM142.92,108.11c-.2.37-.46.64-.79.82-.33.18-.68.27-1.06.27-.59,0-1.08-.21-1.47-.63-.39-.42-.58-1.02-.58-1.8s.2-1.38.6-1.8c.4-.42.9-.63,1.49-.63s1.09.21,1.5.63c.41.42.61,1.02.61,1.8,0,.52-.1.97-.3,1.33Z"/>
    <path d="M134.95,102.34c0-.46.1-.78.3-.96.2-.18.55-.26,1.05-.25v-1.75c-1.15-.03-2.02.19-2.59.67-.57.47-.86,1.21-.86,2.22v.41h-.93v1.7h.93v6.5h2.1v-6.5h1.44v-1.7h-1.44v-.34Z"/>
    <path class="st1" d="M217.78,71.46s0,0,.01,0c-.06,0-.11,0-.17,0,.05,0,.1,0,.16,0Z"/>
  </g>
  <path d="M30.38,64.72l6.74.02c9.33.03,13.4-1.86,17.55-5.39,3.83-3.29,6.25-11.08,6.28-17.28.02-6.2-2.26-12.05-6.89-16.42-3.24-2.74-7.37-4.49-18.49-4.53l-19.7-.07-.22,61.25,14.66.05.07-17.64ZM30.48,35.02l5.77.02c3.33.01,10.06.04,10.03,7.22-.03,7.35-6.6,7.47-9.52,7.46l-6.33-.05.05-14.66ZM141.64,23.04c0-4.67,3.78-8.45,8.45-8.45s8.45,3.78,8.45,8.45-3.78,8.45-8.45,8.45-8.45-3.78-8.45-8.45ZM142.81,35.98h14.69v46.34h-14.69v-46.34ZM183.38,84.14c-3,0-5.52-.38-7.55-1.13-2.04-.75-3.67-1.83-4.9-3.25-1.23-1.41-2.11-3.1-2.65-5.05-.54-1.95-.81-4.13-.81-6.54v-18.28h-7.19v-13.93h7.1v-10.1h14.48v10.1h10.52v13.93h-10.52v15.73c0,2.11.4,3.69,1.21,4.74.81,1.05,2.26,1.58,4.36,1.58.72,0,1.48-.06,2.29-.18.81-.12,1.48-.3,2.02-.54l.18,11.56c-1.02.36-2.31.67-3.87.94-1.56.27-3.12.4-4.68.4ZM88.65,72.59c-5.3,2.17-10.31-.15-12.95-4.99l31.62-11.74c-.22-1.06-.32-1.82-.95-3.53-4.81-13.11-17.93-20.24-30.8-15.52-12.88,4.72-18.28,19.54-13.7,31.79,4.88,13.05,18.65,19.03,30.77,14.59,4.34-1.59,8.05-4.79,10.62-8.63,2.67-3.8,4.16-9.09,4.46-14.65l-12.95,4.83c-1.27,4.91-1.84,6.11-6.1,7.85ZM79.63,47.68c6.27-2.24,10.72,1.63,12.19,3.99l-19.2,7.07c-.41-2.76.44-8.71,7.01-11.06ZM127.72,53.67c-.81,1.02-1.48,2.12-1.84,3.32-.36,1.2-.6,2.24-.6,3.14v22.17h-14.75v-46.34h14.18v9.12l.18-.75c1.14-2.29,2.68-5.94,6.08-7.31,2.78-1.12,8.74-1.1,9.09-1.07l-.03,14.57c-.52-.18-3.49-.44-4.09-.44-1.98,0-3.64.27-4.99.99-1.35.72-2.43,1.58-3.24,2.6ZM217.78,66.58c-3.49,0-6.32-2.83-6.32-6.32s2.83-6.32,6.32-6.32,6.32,2.83,6.32,6.32-2.83,6.32-6.32,6.32ZM265.42,91.28c-1.86-1.58-20.92-17.73-20.92-17.73l-2.52,3.07-3.42-3.1c.57-.92,1.71-2.54,2.17-3.56,1.33-2.93,2-6.09,2-9.47s-.67-7.24-2-10.18c-1.33-2.93-3.11-5.47-5.33-7.6-2.23-2.13-4.61-3.82-7.72-5.07-3.11-1.24-6.36-1.87-9.74-1.87-3.56,0-6.85.67-9.87,2-3.03,1.33-5.69,3.07-8,5.2-2.31,2.13-4.26,4.67-5.51,7.6-1.25,2.93-1.9,6.71-1.9,9.91,0,6.58,2.6,12.23,7.4,16.94,4.8,4.71,10.76,7.07,17.87,7.07,3.38,0,6.62-.76,9.74-2.01,2.02-.81,4.13-2.12,5.78-3.3l3.93,3.16-2.73,2.94s18.66,15.81,20.98,17.77,12.11-9.81,9.78-11.78ZM217.78,71.31c-6.47,0-11.71-4.95-11.71-11.05s5.24-11.05,11.71-11.05,11.71,4.95,11.71,11.05-5.24,11.05-11.71,11.05Z"/>
</svg>